<svg width="32" height="31" viewBox="0 0 32 31" fill="none" xmlns="http://www.w3.org/2000/svg">
<path d="M16 0.740293C11.9458 0.699096 8.04121 2.26925 5.14421 5.10566C2.24722 7.94208 0.594928 11.8127 0.550461 15.8668C0.566082 19.0707 1.59674 22.1872 3.49439 24.7687C5.39204 27.3503 8.05904 29.2639 11.1123 30.2349C11.8848 30.3753 12.1657 29.9118 12.1657 29.5045C12.1657 29.0972 12.1657 28.1983 12.1657 26.9343C7.86792 27.8472 6.955 24.9118 6.955 24.9118C6.66889 23.9903 6.06065 23.2026 5.2415 22.6927C3.837 21.7657 5.35386 21.7798 5.35386 21.7798C5.83933 21.8447 6.3038 22.0186 6.71245 22.2886C7.1211 22.5586 7.46331 22.9176 7.71343 23.3388C8.14929 24.0945 8.86447 24.649 9.70503 24.8828C10.5456 25.1166 11.4443 25.011 12.2078 24.5888C12.2864 23.8196 12.6347 23.1031 13.191 22.5663C9.764 22.1871 6.16847 20.8949 6.16847 15.0943C6.13783 13.5812 6.69691 12.1155 7.72747 11.0072C7.25813 9.70814 7.31355 8.2773 7.88197 7.01842C7.88197 7.01842 9.18816 6.61112 12.0955 8.56338C14.6262 7.88899 17.2895 7.88899 19.8202 8.56338C22.7697 6.61112 24.0338 7.01842 24.0338 7.01842C24.6022 8.2773 24.6576 9.70814 24.1883 11.0072C25.2428 12.0952 25.8322 13.5511 25.8315 15.0662C25.8315 20.8809 22.2079 22.159 18.809 22.5382C19.1812 22.8995 19.4687 23.3388 19.6508 23.8245C19.8329 24.3102 19.9052 24.8302 19.8624 25.3472V29.4905C19.8624 29.4905 20.1433 30.3753 20.9158 30.2208C23.9604 29.2439 26.6184 27.3297 28.5102 24.7519C30.402 22.174 31.4307 19.0643 31.4495 15.8668C31.4051 11.8127 29.7528 7.94208 26.8558 5.10566C23.9588 2.26925 20.0541 0.699096 16 0.740293Z" fill="white"/>
</svg>
