<svg width="21" height="13" viewBox="0 0 21 13" fill="none" xmlns="http://www.w3.org/2000/svg">
<path d="M20.3775 1.5941C20.5149 1.15069 20.3775 0.824341 19.7166 0.824341H17.5298C16.9729 0.824341 16.7167 1.10458 16.5793 1.41674C16.5793 1.41674 15.4655 4.00981 13.8913 5.69123C13.3826 6.17721 13.1487 6.33329 12.8702 6.33329C12.7329 6.33329 12.5212 6.17721 12.5212 5.7338V1.5941C12.5212 1.06201 12.3653 0.824341 11.9049 0.824341H8.46685C8.11784 0.824341 7.90993 1.07265 7.90993 1.30323C7.90993 1.80694 8.69704 1.924 8.77872 3.34292V6.42198C8.77872 7.09596 8.65249 7.22012 8.37403 7.22012C7.63147 7.22012 5.82705 4.6164 4.75776 1.63667C4.54242 1.05846 4.33079 0.824341 3.77015 0.824341H1.58331C0.959563 0.824341 0.833328 1.10458 0.833328 1.41674C0.833328 1.97012 1.57589 4.71927 4.28995 8.35171C6.09808 10.8313 8.64506 12.1757 10.9619 12.1757C12.3542 12.1757 12.5249 11.8777 12.5249 11.3634C12.5249 8.99377 12.3987 8.77029 13.0967 8.77029C13.4197 8.77029 13.9766 8.92637 15.2761 10.1218C16.7612 11.5407 17.0063 12.1757 17.838 12.1757H20.0248C20.6486 12.1757 20.9641 11.8777 20.7822 11.2889C20.3664 10.0509 17.5558 7.5039 17.4296 7.33363C17.1065 6.93633 17.1994 6.75897 17.4296 6.40424C17.4333 6.40069 20.1028 2.81083 20.3775 1.5941Z" fill="white"/>
</svg>
