<svg width="32" height="21" viewBox="0 0 32 21" fill="none" xmlns="http://www.w3.org/2000/svg">
<path d="M31.0195 3.58479C30.6513 2.37791 29.6319 1.43136 28.3188 1.09676C25.901 0.500029 16.1815 0.500029 16.1815 0.500029C16.1815 0.500029 6.48035 0.485714 4.03738 1.09676C2.73111 1.43226 1.70682 2.37791 1.34246 3.58479C0.884104 5.87242 0.656377 8.18778 0.667037 10.5139C0.662192 12.8248 0.888949 15.1366 1.34246 17.4099C1.70682 18.6168 2.73111 19.5633 4.03738 19.9033C6.45516 20.5 16.1815 20.5 16.1815 20.5C16.1815 20.5 25.8768 20.5 28.3188 19.9033C29.6319 19.5633 30.6513 18.6177 31.0195 17.4099C31.4643 15.1366 31.6814 12.8248 31.6659 10.5139C31.6814 8.18778 31.4692 5.87242 31.0195 3.58479ZM13.0767 14.7966V6.21239L21.1672 10.5139L13.0767 14.7966Z" fill="white"/>
</svg>
